<svg xmlns="http://www.w3.org/2000/svg" xmlns:xlink="http://www.w3.org/1999/xlink" zoomAndPan="magnify" preserveAspectRatio="xMidYMid meet" version="1.0" viewBox="-0.2 3.69 30.71 21.85"><defs><g/><clipPath id="fcd85a7a21"><path d="M 4.226562 3.691406 L 26.078125 3.691406 L 26.078125 25.539062 L 4.226562 25.539062 Z M 4.226562 3.691406 " clip-rule="nonzero"/></clipPath><clipPath id="9685f46de1"><path d="M 15.152344 3.691406 C 9.121094 3.691406 4.226562 8.582031 4.226562 14.617188 C 4.226562 20.648438 9.121094 25.539062 15.152344 25.539062 C 21.1875 25.539062 26.078125 20.648438 26.078125 14.617188 C 26.078125 8.582031 21.1875 3.691406 15.152344 3.691406 Z M 15.152344 3.691406 " clip-rule="nonzero"/></clipPath><clipPath id="ad8eb1eb4f"><path d="M 6.273438 5.734375 L 23.695312 5.734375 L 23.695312 23.152344 L 6.273438 23.152344 Z M 6.273438 5.734375 " clip-rule="nonzero"/></clipPath><clipPath id="7b2aa3bdce"><path d="M 22 12 L 29.515625 12 L 29.515625 17 L 22 17 Z M 22 12 " clip-rule="nonzero"/></clipPath><clipPath id="1e87b592c8"><path d="M 0.484375 7 L 29.515625 7 L 29.515625 20 L 0.484375 20 Z M 0.484375 7 " clip-rule="nonzero"/></clipPath><clipPath id="aecb5ef0a8"><path d="M 7.730469 17.25 L 22.585938 17.25 L 22.585938 20.027344 L 7.730469 20.027344 Z M 7.730469 17.25 " clip-rule="nonzero"/></clipPath><clipPath id="f40b49e19e"><path d="M 9.066406 17.25 L 21.238281 17.25 C 21.976562 17.25 22.574219 17.847656 22.574219 18.582031 L 22.574219 18.691406 C 22.574219 19.429688 21.976562 20.027344 21.238281 20.027344 L 9.066406 20.027344 C 8.328125 20.027344 7.730469 19.429688 7.730469 18.691406 L 7.730469 18.582031 C 7.730469 17.847656 8.328125 17.25 9.066406 17.25 Z M 9.066406 17.25 " clip-rule="nonzero"/></clipPath><clipPath id="dc960f472c"><path d="M 8.691406 18.148438 L 9.671875 18.148438 L 9.671875 19.128906 L 8.691406 19.128906 Z M 8.691406 18.148438 " clip-rule="nonzero"/></clipPath><clipPath id="acf6fc5f7f"><path d="M 9.179688 18.148438 C 8.910156 18.148438 8.691406 18.367188 8.691406 18.636719 C 8.691406 18.90625 8.910156 19.128906 9.179688 19.128906 C 9.453125 19.128906 9.671875 18.90625 9.671875 18.636719 C 9.671875 18.367188 9.453125 18.148438 9.179688 18.148438 Z M 9.179688 18.148438 " clip-rule="nonzero"/></clipPath><clipPath id="1fa6c01c48"><path d="M 20.636719 18.148438 L 21.617188 18.148438 L 21.617188 19.128906 L 20.636719 19.128906 Z M 20.636719 18.148438 " clip-rule="nonzero"/></clipPath><clipPath id="e1f4bb11ce"><path d="M 21.128906 18.148438 C 20.855469 18.148438 20.636719 18.367188 20.636719 18.636719 C 20.636719 18.90625 20.855469 19.128906 21.128906 19.128906 C 21.398438 19.128906 21.617188 18.90625 21.617188 18.636719 C 21.617188 18.367188 21.398438 18.148438 21.128906 18.148438 Z M 21.128906 18.148438 " clip-rule="nonzero"/></clipPath></defs><g clip-path="url(#fcd85a7a21)"><g clip-path="url(#9685f46de1)"><path fill="#3044cf" d="M 4.226562 3.691406 L 26.078125 3.691406 L 26.078125 25.539062 L 4.226562 25.539062 Z M 4.226562 3.691406 " fill-opacity="1" fill-rule="nonzero"/></g></g><g clip-path="url(#ad8eb1eb4f)"><path fill="#ffffff" d="M 21.425781 8.332031 C 19.746094 6.65625 17.519531 5.734375 15.148438 5.734375 C 12.777344 5.734375 10.550781 6.65625 8.875 8.332031 C 7.199219 10.007812 6.273438 12.238281 6.273438 14.609375 C 6.273438 16.976562 7.199219 19.207031 8.875 20.882812 C 10.550781 22.558594 12.777344 23.480469 15.148438 23.480469 C 17.519531 23.480469 19.746094 22.558594 21.425781 20.882812 C 23.101562 19.207031 24.023438 16.976562 24.023438 14.609375 C 24.023438 12.238281 23.101562 10.007812 21.425781 8.332031 Z M 7.257812 14.609375 C 7.257812 13.621094 7.441406 12.671875 7.773438 11.800781 L 10.964844 11.800781 C 10.820312 12.695312 10.746094 13.640625 10.746094 14.609375 C 10.746094 15.542969 10.816406 16.457031 10.949219 17.324219 L 7.738281 17.324219 C 7.425781 16.476562 7.257812 15.5625 7.257812 14.609375 Z M 11.726562 14.609375 C 11.726562 13.632812 11.808594 12.6875 11.957031 11.800781 L 14.65625 11.800781 L 14.65625 17.324219 L 11.945312 17.324219 C 11.800781 16.464844 11.726562 15.550781 11.726562 14.609375 Z M 17.46875 8.886719 C 17.738281 9.464844 17.960938 10.117188 18.136719 10.820312 L 15.640625 10.820312 L 15.640625 6.804688 C 16.304688 7.050781 16.953125 7.777344 17.46875 8.886719 Z M 14.65625 6.804688 L 14.65625 10.820312 L 12.164062 10.820312 C 12.335938 10.117188 12.558594 9.464844 12.828125 8.886719 C 13.34375 7.777344 13.992188 7.050781 14.65625 6.804688 Z M 14.65625 18.308594 L 14.65625 22.410156 C 13.992188 22.164062 13.34375 21.4375 12.828125 20.328125 C 12.546875 19.726562 12.316406 19.046875 12.140625 18.308594 Z M 15.640625 22.410156 L 15.640625 18.308594 L 18.15625 18.308594 C 17.980469 19.046875 17.75 19.726562 17.46875 20.328125 C 16.953125 21.4375 16.304688 22.164062 15.640625 22.410156 Z M 15.640625 17.324219 L 15.640625 11.800781 L 18.339844 11.800781 C 18.492188 12.6875 18.570312 13.632812 18.570312 14.609375 C 18.570312 15.550781 18.496094 16.464844 18.355469 17.324219 Z M 19.332031 11.800781 L 22.523438 11.800781 C 22.859375 12.671875 23.042969 13.621094 23.042969 14.609375 C 23.042969 15.5625 22.871094 16.476562 22.558594 17.324219 L 19.347656 17.324219 C 19.480469 16.457031 19.550781 15.542969 19.550781 14.609375 C 19.550781 13.640625 19.476562 12.695312 19.332031 11.800781 Z M 22.070312 10.820312 L 19.144531 10.820312 C 18.949219 9.960938 18.683594 9.167969 18.359375 8.472656 C 18.105469 7.933594 17.824219 7.464844 17.519531 7.078125 C 19.472656 7.695312 21.101562 9.054688 22.070312 10.820312 Z M 12.777344 7.078125 C 12.472656 7.464844 12.191406 7.933594 11.9375 8.472656 C 11.613281 9.167969 11.351562 9.960938 11.15625 10.820312 L 8.226562 10.820312 C 9.199219 9.054688 10.824219 7.695312 12.777344 7.078125 Z M 8.179688 18.308594 L 11.132812 18.308594 C 11.332031 19.199219 11.601562 20.023438 11.9375 20.742188 C 12.191406 21.285156 12.472656 21.75 12.777344 22.136719 C 10.792969 21.511719 9.144531 20.117188 8.179688 18.308594 Z M 17.519531 22.136719 C 17.824219 21.75 18.105469 21.285156 18.359375 20.742188 C 18.695312 20.023438 18.964844 19.199219 19.164062 18.308594 L 22.121094 18.308594 C 21.15625 20.117188 19.503906 21.511719 17.519531 22.136719 Z M 17.519531 22.136719 " fill-opacity="1" fill-rule="nonzero"/></g><g fill="#3044cf" fill-opacity="1"><g transform="translate(1.263236, 16.477025)"><g><path d="M 3.828125 -2.703125 C 4.054688 -2.703125 4.222656 -2.632812 4.328125 -2.5 C 4.429688 -2.351562 4.457031 -2.171875 4.40625 -1.953125 L 4.171875 -0.75 C 4.117188 -0.519531 4.007812 -0.335938 3.84375 -0.203125 C 3.675781 -0.0664062 3.484375 0 3.265625 0 L 0.609375 0 C 0.378906 0 0.210938 -0.0664062 0.109375 -0.203125 C 0.00390625 -0.335938 -0.0195312 -0.519531 0.03125 -0.75 L 0.15625 -1.40625 L 1.734375 -1.40625 L 1.5625 -0.59375 L 2.546875 -0.59375 L 2.875 -2.109375 L 1.046875 -2.109375 C 0.828125 -2.109375 0.660156 -2.175781 0.546875 -2.3125 C 0.441406 -2.445312 0.414062 -2.628906 0.46875 -2.859375 L 0.71875 -4.046875 C 0.757812 -4.273438 0.863281 -4.457031 1.03125 -4.59375 C 1.195312 -4.726562 1.390625 -4.796875 1.609375 -4.796875 L 4.265625 -4.796875 C 4.492188 -4.796875 4.660156 -4.726562 4.765625 -4.59375 C 4.867188 -4.457031 4.894531 -4.273438 4.84375 -4.046875 L 4.71875 -3.40625 L 3.140625 -3.40625 L 3.3125 -4.203125 L 2.328125 -4.203125 L 2 -2.703125 Z M 3.828125 -2.703125 "/></g></g></g><g fill="#3044cf" fill-opacity="1"><g transform="translate(6.102392, 16.477025)"><g><path d="M 3.5625 0 L 2.15625 0 L 2.828125 -3.515625 L 2.0625 -3.515625 L 1.40625 0 L 0 0 L 0.96875 -5.09375 L 2.359375 -5.09375 L 2.171875 -4.078125 L 3.765625 -4.078125 C 3.929688 -4.078125 4.054688 -4.015625 4.140625 -3.890625 C 4.222656 -3.773438 4.242188 -3.625 4.203125 -3.4375 Z M 3.5625 0 "/></g></g></g><g fill="#3044cf" fill-opacity="1"><g transform="translate(10.305808, 16.477025)"><g><path d="M 1.953125 -3.515625 L 1.375 -0.5625 L 2.140625 -0.5625 L 2.703125 -3.515625 Z M 0.53125 -3.4375 C 0.5625 -3.625 0.644531 -3.78125 0.78125 -3.90625 C 0.90625 -4.019531 1.050781 -4.078125 1.21875 -4.078125 L 3.640625 -4.078125 C 3.804688 -4.078125 3.929688 -4.019531 4.015625 -3.90625 C 4.085938 -3.78125 4.109375 -3.625 4.078125 -3.4375 L 3.578125 -0.796875 C 3.535156 -0.554688 3.4375 -0.363281 3.28125 -0.21875 C 3.113281 -0.0703125 2.925781 0 2.71875 0 L 0.578125 0 C 0.367188 0 0.210938 -0.0703125 0.109375 -0.21875 C 0.00390625 -0.363281 -0.0195312 -0.554688 0.03125 -0.796875 Z M 0.53125 -3.4375 "/></g></g></g><g fill="#3044cf" fill-opacity="1"><g transform="translate(14.413025, 16.477025)"><g><path d="M 3.5625 0 L 2.15625 0 L 2.828125 -3.515625 L 2.0625 -3.515625 L 1.40625 0 L 0 0 L 0.96875 -5.09375 L 2.359375 -5.09375 L 2.171875 -4.078125 L 3.765625 -4.078125 C 3.929688 -4.078125 4.054688 -4.015625 4.140625 -3.890625 C 4.222656 -3.773438 4.242188 -3.625 4.203125 -3.4375 Z M 3.5625 0 "/></g></g></g><g fill="#3044cf" fill-opacity="1"><g transform="translate(18.616441, 16.477025)"><g><path d="M 3.421875 0 L 0.578125 0 C 0.367188 0 0.210938 -0.0703125 0.109375 -0.21875 C 0.00390625 -0.363281 -0.0195312 -0.554688 0.03125 -0.796875 L 0.3125 -2.3125 C 0.34375 -2.5 0.421875 -2.648438 0.546875 -2.765625 C 0.671875 -2.890625 0.816406 -2.953125 0.984375 -2.953125 L 2.578125 -2.953125 L 2.703125 -3.515625 L 1.234375 -3.515625 L 1.34375 -4.078125 L 3.625 -4.078125 C 3.800781 -4.078125 3.925781 -4.015625 4 -3.890625 C 4.082031 -3.773438 4.101562 -3.625 4.0625 -3.4375 Z M 1.71875 -2.375 L 1.375 -0.5625 L 2.125 -0.5625 L 2.484375 -2.375 Z M 1.71875 -2.375 "/></g></g></g><g clip-path="url(#7b2aa3bdce)"><g fill="#3044cf" fill-opacity="1"><g transform="translate(22.665103, 16.477025)"><g><path d="M 5.71875 0 L 4.3125 0 L 4.984375 -3.515625 L 4.234375 -3.515625 L 3.5625 0 L 2.171875 0 L 2.828125 -3.515625 L 2.078125 -3.515625 L 1.40625 0 L 0.015625 0 L 0.78125 -4.078125 L 5.921875 -4.078125 C 6.085938 -4.078125 6.210938 -4.019531 6.296875 -3.90625 C 6.378906 -3.78125 6.40625 -3.625 6.375 -3.4375 Z M 5.71875 0 "/></g></g></g></g><g clip-path="url(#1e87b592c8)"><path stroke-linecap="butt" transform="matrix(0.164204, 0, 0, 0.164204, -1.266615, 8.123834)" fill="none" stroke-linejoin="miter" d="M 40.637596 30.052573 C 41.969778 30.052573 42.945126 30.456985 43.587429 31.26581 C 44.205942 32.074635 44.372465 33.168928 44.086997 34.501111 L 42.612081 41.566436 C 42.326613 42.898619 41.684311 43.969122 40.708963 44.801736 C 39.757404 45.586773 38.639322 45.991185 37.330928 45.991185 L 21.630206 45.991185 C 20.298023 45.991185 19.322675 45.586773 18.727951 44.801736 C 18.085649 43.969122 17.919126 42.898619 18.204594 41.566436 L 18.965841 37.736411 L 28.267329 37.736411 L 27.291982 42.470417 L 33.12028 42.470417 L 34.97582 33.573341 L 24.223204 33.573341 C 22.91481 33.573341 21.939462 33.168928 21.29716 32.383892 C 20.654858 31.575067 20.488335 30.480774 20.797592 29.148592 L 22.248719 22.083267 C 22.510398 20.751084 23.1527 19.656791 24.151837 18.847966 C 25.103396 18.039141 26.245267 17.634728 27.529871 17.634728 L 43.230594 17.634728 C 44.562777 17.634728 45.538124 18.039141 46.180427 18.847966 C 46.79894 19.656791 46.965463 20.751084 46.679995 22.083267 L 45.894959 25.913291 L 36.59347 25.913291 L 37.568818 21.203074 L 31.74052 21.203074 L 29.88498 30.052573 Z M 67.590503 45.991185 L 59.359518 45.991185 L 63.284699 25.2472 L 58.812372 25.2472 L 54.887191 45.991185 L 46.608628 45.991185 L 52.294193 15.898133 L 60.548967 15.898133 L 59.430885 21.940533 L 68.803741 21.940533 C 69.802878 21.940533 70.540336 22.273578 70.992326 22.987248 C 71.491895 23.677128 71.634629 24.581109 71.444317 25.675402 Z M 82.886813 25.223411 L 79.532568 42.63694 L 84.004895 42.63694 L 87.35914 25.223411 Z M 74.513094 25.651613 C 74.703406 24.581109 75.179186 23.677128 75.964222 22.963459 C 76.725469 22.249789 77.581872 21.916744 78.581009 21.916744 L 92.878182 21.916744 C 93.829741 21.916744 94.567199 22.249789 95.066768 22.963459 C 95.542547 23.677128 95.685281 24.581109 95.47118 25.651613 L 92.545137 41.257179 C 92.283458 42.684518 91.664944 43.826389 90.713386 44.682792 C 89.785616 45.539195 88.691323 45.967396 87.454296 45.967396 L 74.84614 45.967396 C 73.585324 45.967396 72.633766 45.539195 72.039041 44.682792 C 71.396739 43.826389 71.254005 42.684518 71.539473 41.257179 Z M 116.643367 45.991185 L 108.388593 45.991185 L 112.313774 25.2472 L 107.841447 25.2472 L 103.916266 45.991185 L 95.661492 45.991185 L 101.323268 15.898133 L 109.601831 15.898133 L 108.45996 21.940533 L 117.856605 21.940533 C 118.855741 21.940533 119.5932 22.273578 120.04519 22.987248 C 120.544759 23.677128 120.687492 24.581109 120.497181 25.675402 Z M 140.622652 45.991185 L 123.875215 45.991185 C 122.614399 45.991185 121.686629 45.562984 121.044327 44.706581 C 120.449603 43.826389 120.28308 42.684518 120.592337 41.280968 L 122.233776 32.336314 C 122.447876 31.242021 122.923656 30.33804 123.661114 29.64816 C 124.422361 28.95828 125.302553 28.601445 126.277901 28.601445 L 135.698335 28.601445 L 136.364426 25.2472 L 127.70524 25.2472 L 128.323753 21.940533 L 141.859679 21.940533 C 142.858816 21.940533 143.596274 22.273578 144.048265 22.987248 C 144.547833 23.700917 144.666778 24.604898 144.452677 25.675402 Z M 130.607494 31.955691 L 128.537854 42.660729 L 133.010181 42.660729 L 135.079822 31.955691 Z M 178.066497 45.967396 L 169.811723 45.967396 L 173.784482 25.223411 L 169.312155 25.223411 L 165.339396 45.967396 L 157.108411 45.967396 L 161.057381 25.223411 L 156.585054 25.223411 L 152.636084 45.967396 L 144.38131 45.967396 L 148.948793 21.916744 L 179.327313 21.916744 C 180.302661 21.916744 181.040119 22.249789 181.539687 22.963459 C 182.015467 23.677128 182.134412 24.581109 181.920311 25.651613 Z M 178.066497 45.967396 " stroke="#3044cf" stroke-width="3.79203" stroke-opacity="1" stroke-miterlimit="4"/></g><g fill="#ffffff" fill-opacity="1"><g transform="translate(1.694192, 15.677229)"><g><path d="M 3.703125 -2.609375 C 3.921875 -2.609375 4.082031 -2.546875 4.1875 -2.421875 C 4.289062 -2.285156 4.320312 -2.109375 4.28125 -1.890625 L 4.03125 -0.734375 C 3.988281 -0.515625 3.882812 -0.335938 3.71875 -0.203125 C 3.5625 -0.0664062 3.378906 0 3.171875 0 L 0.59375 0 C 0.375 0 0.210938 -0.0664062 0.109375 -0.203125 C 0.00390625 -0.335938 -0.0195312 -0.515625 0.03125 -0.734375 L 0.15625 -1.359375 L 1.6875 -1.359375 L 1.515625 -0.578125 L 2.46875 -0.578125 L 2.78125 -2.03125 L 1.015625 -2.03125 C 0.796875 -2.03125 0.632812 -2.097656 0.53125 -2.234375 C 0.425781 -2.367188 0.398438 -2.546875 0.453125 -2.765625 L 0.6875 -3.921875 C 0.726562 -4.140625 0.832031 -4.316406 1 -4.453125 C 1.15625 -4.585938 1.34375 -4.65625 1.5625 -4.65625 L 4.140625 -4.65625 C 4.347656 -4.65625 4.507812 -4.585938 4.625 -4.453125 C 4.71875 -4.316406 4.742188 -4.140625 4.703125 -3.921875 L 4.578125 -3.296875 L 3.046875 -3.296875 L 3.203125 -4.0625 L 2.25 -4.0625 L 1.9375 -2.609375 Z M 3.703125 -2.609375 "/></g></g></g><g fill="#ffffff" fill-opacity="1"><g transform="translate(6.383213, 15.677229)"><g><path d="M 3.453125 0 L 2.09375 0 L 2.734375 -3.40625 L 2 -3.40625 L 1.359375 0 L 0 0 L 0.9375 -4.9375 L 2.296875 -4.9375 L 2.109375 -3.953125 L 3.640625 -3.953125 C 3.804688 -3.953125 3.925781 -3.894531 4 -3.78125 C 4.082031 -3.664062 4.109375 -3.515625 4.078125 -3.328125 Z M 3.453125 0 "/></g></g></g><g fill="#ffffff" fill-opacity="1"><g transform="translate(10.456218, 15.677229)"><g><path d="M 1.890625 -3.40625 L 1.34375 -0.546875 L 2.0625 -0.546875 L 2.625 -3.40625 Z M 0.515625 -3.34375 C 0.546875 -3.519531 0.625 -3.664062 0.75 -3.78125 C 0.875 -3.894531 1.015625 -3.953125 1.171875 -3.953125 L 3.53125 -3.953125 C 3.6875 -3.953125 3.804688 -3.894531 3.890625 -3.78125 C 3.960938 -3.664062 3.984375 -3.519531 3.953125 -3.34375 L 3.46875 -0.78125 C 3.425781 -0.539062 3.328125 -0.351562 3.171875 -0.21875 C 3.015625 -0.0703125 2.835938 0 2.640625 0 L 0.5625 0 C 0.351562 0 0.203125 -0.0703125 0.109375 -0.21875 C 0.00390625 -0.351562 -0.0195312 -0.539062 0.03125 -0.78125 Z M 0.515625 -3.34375 "/></g></g></g><g fill="#ffffff" fill-opacity="1"><g transform="translate(14.436008, 15.677229)"><g><path d="M 3.453125 0 L 2.09375 0 L 2.734375 -3.40625 L 2 -3.40625 L 1.359375 0 L 0 0 L 0.9375 -4.9375 L 2.296875 -4.9375 L 2.109375 -3.953125 L 3.640625 -3.953125 C 3.804688 -3.953125 3.925781 -3.894531 4 -3.78125 C 4.082031 -3.664062 4.109375 -3.515625 4.078125 -3.328125 Z M 3.453125 0 "/></g></g></g><g fill="#ffffff" fill-opacity="1"><g transform="translate(18.509012, 15.677229)"><g><path d="M 3.3125 0 L 0.5625 0 C 0.351562 0 0.195312 -0.0664062 0.09375 -0.203125 C 0 -0.347656 -0.0195312 -0.539062 0.03125 -0.78125 L 0.296875 -2.234375 C 0.328125 -2.421875 0.40625 -2.570312 0.53125 -2.6875 C 0.65625 -2.800781 0.796875 -2.859375 0.953125 -2.859375 L 2.5 -2.859375 L 2.609375 -3.40625 L 1.1875 -3.40625 L 1.296875 -3.953125 L 3.515625 -3.953125 C 3.679688 -3.953125 3.800781 -3.894531 3.875 -3.78125 C 3.957031 -3.65625 3.976562 -3.503906 3.9375 -3.328125 Z M 1.671875 -2.3125 L 1.328125 -0.546875 L 2.0625 -0.546875 L 2.40625 -2.3125 Z M 1.671875 -2.3125 "/></g></g></g><g fill="#ffffff" fill-opacity="1"><g transform="translate(22.432064, 15.677229)"><g><path d="M 5.53125 0 L 4.1875 0 L 4.828125 -3.40625 L 4.09375 -3.40625 L 3.453125 0 L 2.09375 0 L 2.75 -3.40625 L 2.015625 -3.40625 L 1.359375 0 L 0.015625 0 L 0.75 -3.953125 L 5.75 -3.953125 C 5.90625 -3.953125 6.023438 -3.894531 6.109375 -3.78125 C 6.179688 -3.664062 6.203125 -3.519531 6.171875 -3.34375 Z M 5.53125 0 "/></g></g></g><g clip-path="url(#aecb5ef0a8)"><g clip-path="url(#f40b49e19e)"><path fill="#ffffff" d="M 7.730469 17.25 L 22.574219 17.25 L 22.574219 20.027344 L 7.730469 20.027344 Z M 7.730469 17.25 " fill-opacity="1" fill-rule="nonzero"/></g></g><g clip-path="url(#dc960f472c)"><g clip-path="url(#acf6fc5f7f)"><path fill="#3044cf" d="M 8.691406 18.148438 L 9.671875 18.148438 L 9.671875 19.128906 L 8.691406 19.128906 Z M 8.691406 18.148438 " fill-opacity="1" fill-rule="nonzero"/></g></g><g fill="#3044cf" fill-opacity="1"><g transform="translate(11.138053, 18.962898)"><g><path d="M 0.0625 0 L 0.0625 -0.140625 L 0.21875 -0.140625 L 0.21875 -0.546875 L 0.0625 -0.546875 L 0.0625 -0.671875 L 0.578125 -0.671875 L 0.578125 -0.546875 L 0.40625 -0.546875 L 0.40625 -0.140625 L 0.578125 -0.140625 L 0.578125 0 Z M 0.0625 0 "/></g></g></g><g fill="#3044cf" fill-opacity="1"><g transform="translate(11.771148, 18.962898)"><g><path d="M 0.109375 0 L 0.109375 -0.671875 L 0.359375 -0.671875 L 0.6875 -0.1875 L 0.71875 -0.1875 L 0.71875 -0.671875 L 0.890625 -0.671875 L 0.890625 0 L 0.640625 0 L 0.28125 -0.5 L 0.265625 -0.5 L 0.265625 0 Z M 0.109375 0 "/></g></g></g><g fill="#3044cf" fill-opacity="1"><g transform="translate(12.760359, 18.962898)"><g><path d="M 0.109375 0 L 0.109375 -0.671875 L 0.71875 -0.671875 L 0.90625 -0.53125 L 0.90625 -0.15625 L 0.71875 0 Z M 0.265625 -0.15625 L 0.65625 -0.15625 L 0.734375 -0.21875 L 0.734375 -0.453125 L 0.65625 -0.53125 L 0.265625 -0.53125 Z M 0.265625 -0.15625 "/></g></g></g><g fill="#3044cf" fill-opacity="1"><g transform="translate(13.740885, 18.962898)"><g><path d="M 0.109375 0 L 0.109375 -0.671875 L 0.828125 -0.671875 L 0.828125 -0.53125 L 0.265625 -0.53125 L 0.265625 -0.40625 L 0.6875 -0.40625 L 0.6875 -0.265625 L 0.265625 -0.265625 L 0.265625 -0.140625 L 0.84375 -0.140625 L 0.84375 0 Z M 0.109375 0 "/></g></g></g><g fill="#3044cf" fill-opacity="1"><g transform="translate(14.636482, 18.962898)"><g><path d="M 0.03125 0 L 0.03125 -0.046875 L 0.3125 -0.34375 L 0.046875 -0.625 L 0.046875 -0.671875 L 0.21875 -0.671875 L 0.421875 -0.46875 L 0.453125 -0.46875 L 0.65625 -0.671875 L 0.8125 -0.671875 L 0.8125 -0.625 L 0.5625 -0.34375 L 0.84375 -0.046875 L 0.84375 0 L 0.65625 0 L 0.453125 -0.234375 L 0.421875 -0.234375 L 0.203125 0 Z M 0.03125 0 "/></g></g></g><g fill="#3044cf" fill-opacity="1"><g transform="translate(15.507953, 18.962898)"><g/></g></g><g fill="#3044cf" fill-opacity="1"><g transform="translate(15.918114, 18.962898)"><g><path d="M 0.078125 0 L 0.078125 -0.140625 L 0.625 -0.140625 L 0.65625 -0.1875 L 0.65625 -0.21875 L 0.625 -0.265625 L 0.21875 -0.265625 L 0.0625 -0.390625 L 0.0625 -0.5625 L 0.21875 -0.671875 L 0.78125 -0.671875 L 0.78125 -0.546875 L 0.28125 -0.546875 L 0.234375 -0.5 L 0.234375 -0.453125 L 0.28125 -0.40625 L 0.6875 -0.40625 L 0.828125 -0.28125 L 0.828125 -0.125 L 0.6875 0 Z M 0.078125 0 "/></g></g></g><g fill="#3044cf" fill-opacity="1"><g transform="translate(16.801166, 18.962898)"><g><path d="M 0.0625 0 L 0.0625 -0.140625 L 0.21875 -0.140625 L 0.21875 -0.546875 L 0.0625 -0.546875 L 0.0625 -0.671875 L 0.578125 -0.671875 L 0.578125 -0.546875 L 0.40625 -0.546875 L 0.40625 -0.140625 L 0.578125 -0.140625 L 0.578125 0 Z M 0.0625 0 "/></g></g></g><g fill="#3044cf" fill-opacity="1"><g transform="translate(17.434261, 18.962898)"><g><path d="M 0.328125 0 L 0.328125 -0.53125 L 0.015625 -0.53125 L 0.015625 -0.671875 L 0.828125 -0.671875 L 0.828125 -0.53125 L 0.515625 -0.53125 L 0.515625 0 Z M 0.328125 0 "/></g></g></g><g fill="#3044cf" fill-opacity="1"><g transform="translate(18.273884, 18.962898)"><g><path d="M 0.109375 0 L 0.109375 -0.671875 L 0.828125 -0.671875 L 0.828125 -0.53125 L 0.265625 -0.53125 L 0.265625 -0.40625 L 0.6875 -0.40625 L 0.6875 -0.265625 L 0.265625 -0.265625 L 0.265625 -0.140625 L 0.84375 -0.140625 L 0.84375 0 Z M 0.109375 0 "/></g></g></g><g clip-path="url(#1fa6c01c48)"><g clip-path="url(#e1f4bb11ce)"><path fill="#3044cf" d="M 20.636719 18.148438 L 21.617188 18.148438 L 21.617188 19.128906 L 20.636719 19.128906 Z M 20.636719 18.148438 " fill-opacity="1" fill-rule="nonzero"/></g></g></svg>